# xmcd
#
# Track frame offsets:
#	150
#	18802
#	36708
#	52626
#	67562
#	81900
#	99503
#	116606
#	135486
#	149835
#
# Disc length: 2142 seconds
#
# Revision: 1
# Processed by: cddbd v1.5.2PL0 Copyright (c) Steve Scherf et al.
# Submitted via: audiograbber 1.83.01
#
DISCID=7f085c0a
DTITLE=Martin Harley Band - Drumrolls For Somersaults
DYEAR=2010
DGENRE=Blues
TTITLE0=Love In The Afternoon
TTITLE1=Automatic Life
TTITLE2=Darcy's Car
TTITLE3=Drumrolls For Somersaults
TTITLE4=Hand To Hold
TTITLE5=Take What You Want
TTITLE6=Just Passing Thru
TTITLE7=Winter Coat
TTITLE8=Cowley Road
TTITLE9=Honey Bee
EXTD=Promo CD
EXTT0=
EXTT1=
EXTT2=
EXTT3=
EXTT4=
EXTT5=
EXTT6=
EXTT7=
EXTT8=
EXTT9=
PLAYORDER=
